<svg width="391" height="298" viewBox="0 0 391 298" fill="none" xmlns="http://www.w3.org/2000/svg">
<g clip-path="url(#clip0_24660_1183)">
<path d="M325.716 198.582C325.716 203.345 292.179 219.663 252.226 219.663C212.272 219.663 181.032 203.345 181.032 198.582C181.032 193.819 212.272 202.415 252.226 202.415C292.179 202.415 325.716 193.819 325.716 198.582Z" fill="#3F3D56"/>
<path opacity="0.1" d="M325.716 198.582C325.716 203.345 292.179 219.663 252.226 219.663C212.272 219.663 181.032 203.345 181.032 198.582C181.032 193.819 212.272 202.415 252.226 202.415C292.179 202.415 325.716 193.819 325.716 198.582Z" fill="black"/>
<path d="M253.374 207.206C293.327 207.206 325.716 203.345 325.716 198.582C325.716 193.819 293.327 189.958 253.374 189.958C213.42 189.958 181.032 193.819 181.032 198.582C181.032 203.345 213.42 207.206 253.374 207.206Z" fill="#3F3D56"/>
<path opacity="0.1" d="M255.085 206.718C268.635 206.718 279.62 203.575 279.62 199.698C279.62 195.821 268.635 192.678 255.085 192.678C241.534 192.678 230.55 195.821 230.55 199.698C230.55 203.575 241.534 206.718 255.085 206.718Z" fill="black"/>
<path d="M260.468 153.081C261.407 151.44 261.892 149.578 261.873 147.686C261.873 142.811 258.858 138.859 255.139 138.859C251.42 138.859 248.405 142.811 248.405 147.686C248.387 149.578 248.872 151.44 249.811 153.081C248.889 154.729 248.405 156.587 248.405 158.476C248.405 160.365 248.889 162.222 249.811 163.871C248.889 165.519 248.405 167.376 248.405 169.265C248.405 171.154 248.889 173.012 249.811 174.66C248.889 176.308 248.405 178.166 248.405 180.055C248.405 181.944 248.889 183.801 249.811 185.45C248.872 187.091 248.387 188.953 248.405 190.844C248.405 195.72 251.42 199.672 255.139 199.672C258.858 199.672 261.873 195.72 261.873 190.844C261.892 188.953 261.407 187.091 260.468 185.45C261.389 183.801 261.873 181.944 261.873 180.055C261.873 178.166 261.389 176.308 260.468 174.66C261.389 173.012 261.873 171.154 261.873 169.265C261.873 167.376 261.389 165.519 260.468 163.871C261.389 162.222 261.873 160.365 261.873 158.476C261.873 156.587 261.389 154.729 260.468 153.081Z" fill="#3F3D56"/>
<path d="M255.139 145.725C258.858 145.725 261.873 141.772 261.873 136.897C261.873 132.022 258.858 128.069 255.139 128.069C251.42 128.069 248.405 132.022 248.405 136.897C248.405 141.772 251.42 145.725 255.139 145.725Z" fill="#3F3D56"/>
<path d="M255.139 134.935C258.858 134.935 261.873 130.983 261.873 126.108C261.873 121.232 258.858 117.28 255.139 117.28C251.42 117.28 248.405 121.232 248.405 126.108C248.405 130.983 251.42 134.935 255.139 134.935Z" fill="#3F3D56"/>
<path d="M280.348 52.272C281.268 51.0991 282.106 49.8639 282.856 48.5753L265.162 45.6653L284.298 45.8078C286.134 41.808 287.135 37.4752 287.241 33.0744C287.347 28.6737 286.555 24.2976 284.914 20.2139L259.24 33.5509L282.918 16.1219C280.699 12.2833 277.715 8.94321 274.152 6.30973C270.588 3.67626 266.522 1.80581 262.205 0.814904C257.888 -0.176002 253.413 -0.266137 249.06 0.550116C244.707 1.36637 240.568 3.07152 236.902 5.55935C233.235 8.04718 230.12 11.2644 227.749 15.0106C225.379 18.7567 223.804 22.9516 223.123 27.3339C222.441 31.7162 222.669 36.1919 223.79 40.4824C224.912 44.7728 226.904 48.786 229.642 52.272C228.208 54.0975 226.974 56.0725 225.963 58.1627L248.931 70.112L224.441 61.8811C222.721 66.9715 222.296 72.411 223.204 77.7073C224.112 83.0037 226.325 87.9896 229.642 92.2141C225.899 96.9786 223.571 102.702 222.924 108.729C222.276 114.756 223.336 120.843 225.98 126.296C228.625 131.749 232.748 136.346 237.879 139.562C243.01 142.779 248.941 144.485 254.995 144.485C261.048 144.485 266.979 142.779 272.11 139.562C277.241 136.346 281.365 131.749 284.009 126.296C286.654 120.843 287.713 114.756 287.066 108.729C286.418 102.702 284.09 96.9786 280.348 92.2141C284.82 86.5203 287.251 79.4868 287.251 72.243C287.251 64.9993 284.82 57.9658 280.348 52.272Z" fill="#FFE600"/>
<path opacity="0.1" d="M222.739 72.243C222.728 79.4886 225.16 86.5257 229.642 92.2141C225.899 96.9786 223.571 102.702 222.924 108.729C222.276 114.756 223.336 120.843 225.98 126.296C228.625 131.749 232.748 136.346 237.879 139.562C243.01 142.779 248.941 144.485 254.995 144.485C261.048 144.485 266.979 142.779 272.11 139.562C277.241 136.346 281.365 131.749 284.009 126.296C286.654 120.843 287.713 114.756 287.066 108.729C286.418 102.702 284.09 96.9786 280.348 92.2141C284.671 86.718 222.739 68.6177 222.739 72.243Z" fill="black"/>
<path d="M370.002 104.007L377.267 97.5197C362.845 94.8327 348.37 107.539 344.592 126.036C344.467 126.061 344.342 126.092 344.22 126.129L336.027 99.222C335.424 102.422 335.156 105.677 335.228 108.933L328.839 96.5087C326.257 110.407 332.405 123.32 342.725 126.415C341.864 126.417 341.003 126.355 340.15 126.23C340.111 126.224 340.084 126.22 340.084 126.22C340.018 126.906 340.037 127.598 340.142 128.278C340.187 128.66 340.35 129.018 340.607 129.302C340.923 129.585 341.811 129.976 342.976 130.38C343.065 130.411 343.156 130.442 343.249 130.473C343.991 130.722 344.828 130.973 345.692 131.204C346.773 131.493 347.894 131.751 348.923 131.934C349.034 131.954 349.137 131.966 349.234 131.974C349.265 131.977 349.292 131.976 349.322 131.978C349.384 131.981 349.446 131.982 349.502 131.98C349.532 131.979 349.56 131.975 349.589 131.973C349.636 131.969 349.683 131.962 349.73 131.953C349.756 131.948 349.78 131.941 349.805 131.935C349.844 131.924 349.883 131.91 349.92 131.894C349.94 131.885 349.96 131.877 349.979 131.867C350.013 131.848 350.047 131.826 350.078 131.802C350.09 131.792 350.104 131.783 350.116 131.772C350.152 131.74 350.184 131.703 350.211 131.663C350.213 131.659 350.217 131.656 350.22 131.652C350.25 131.605 350.275 131.555 350.294 131.501C350.295 131.498 350.296 131.494 350.297 131.49C350.314 131.439 350.327 131.386 350.335 131.333C350.336 131.329 350.337 131.326 350.338 131.322L350.336 131.324C350.524 130.084 348.789 127.459 348.767 126.716C348.745 126.005 347.005 125.814 345.582 125.911L372.315 104.3C371.551 104.158 370.778 104.06 370.002 104.007Z" fill="#F2C94C"/>
<path d="M391 129.911C391 133.141 368.26 144.205 341.17 144.205C314.079 144.205 292.897 133.141 292.897 129.911C292.897 126.682 314.079 132.51 341.17 132.51C368.26 132.51 391 126.682 391 129.911Z" fill="#3F3D56"/>
<path opacity="0.1" d="M391 129.911C391 133.141 368.26 144.205 341.17 144.205C314.079 144.205 292.897 133.141 292.897 129.911C292.897 126.682 314.079 132.51 341.17 132.51C368.26 132.51 391 126.682 391 129.911Z" fill="black"/>
<path d="M341.948 135.759C369.039 135.759 391 133.141 391 129.911C391 126.682 369.039 124.063 341.948 124.063C314.858 124.063 292.897 126.682 292.897 129.911C292.897 133.141 314.858 135.759 341.948 135.759Z" fill="#3F3D56"/>
<path opacity="0.1" d="M341.93 133.401C347.738 133.401 352.445 131.829 352.445 129.891C352.445 127.952 347.738 126.381 341.93 126.381C336.123 126.381 331.416 127.952 331.416 129.891C331.416 131.829 336.123 133.401 341.93 133.401Z" fill="black"/>
<path d="M320.067 100.799C320.067 115.702 329.403 127.76 340.94 127.76L320.067 100.799Z" fill="#3F3D56"/>
<path d="M340.94 127.76C340.94 112.691 351.358 100.496 364.233 100.496L340.94 127.76Z" fill="#FFE600"/>
<path d="M327.629 102.15C327.629 116.306 333.583 127.76 340.94 127.76L327.629 102.15Z" fill="#FFE600"/>
<path d="M340.94 127.76C340.94 108.505 352.982 92.9232 367.863 92.9232L340.94 127.76Z" fill="#3F3D56"/>
<path d="M336.549 127.95C336.549 127.95 339.509 127.859 340.401 127.223C341.293 126.587 344.955 125.827 345.176 126.847C345.397 127.868 349.624 131.922 346.282 131.949C342.94 131.976 338.517 131.427 337.627 130.884C336.736 130.341 336.549 127.95 336.549 127.95Z" fill="#A8A8A8"/>
<path opacity="0.2" d="M346.342 131.593C343 131.62 338.577 131.072 337.686 130.529C337.008 130.115 336.738 128.631 336.648 127.946C336.585 127.949 336.549 127.95 336.549 127.95C336.549 127.95 336.736 130.341 337.627 130.884C338.517 131.427 342.94 131.976 346.282 131.949C347.247 131.941 347.58 131.597 347.562 131.088C347.428 131.396 347.06 131.588 346.342 131.593Z" fill="black"/>
<path d="M239.964 263.036C239.964 270.935 184.342 298 118.077 298C51.8133 298 0 270.935 0 263.036C0 255.136 51.8133 269.393 118.077 269.393C184.342 269.393 239.964 255.136 239.964 263.036Z" fill="#3F3D56"/>
<path opacity="0.1" d="M239.964 263.036C239.964 270.935 184.342 298 118.077 298C51.8133 298 0 270.935 0 263.036C0 255.136 51.8133 269.393 118.077 269.393C184.342 269.393 239.964 255.136 239.964 263.036Z" fill="black"/>
<path d="M119.982 277.339C186.246 277.339 239.964 270.936 239.964 263.036C239.964 255.136 186.246 248.732 119.982 248.732C53.7178 248.732 0 255.136 0 263.036C0 270.936 53.7178 277.339 119.982 277.339Z" fill="#3F3D56"/>
<path opacity="0.1" d="M120.727 269.116C142.665 269.116 160.45 265.274 160.45 260.536C160.45 255.797 142.665 251.956 120.727 251.956C98.7885 251.956 81.0039 255.797 81.0039 260.536C81.0039 265.274 98.7885 269.116 120.727 269.116Z" fill="black"/>
<path d="M116.683 74.1426C118.344 72.8781 119.683 71.2377 120.59 69.3557C121.496 67.4736 121.945 65.4033 121.9 63.3141C121.854 61.225 121.315 59.1764 120.327 57.3358C119.339 55.4953 117.93 53.9152 116.215 52.7247C117.888 53.4824 119.386 54.581 120.612 55.9507C121.839 57.3203 122.766 58.9308 123.336 60.6794C123.906 62.4281 124.106 64.2765 123.923 66.1068C123.74 67.9371 123.178 69.7091 122.273 71.3097C121.368 72.9104 120.139 74.3046 118.666 75.4034C117.193 76.5022 115.507 77.2815 113.717 77.6915C111.926 78.1016 110.07 78.1334 108.266 77.785C106.462 77.4366 104.751 76.7156 103.241 75.668C105.411 76.65 107.806 77.0267 110.172 76.7582C112.538 76.4897 114.788 75.586 116.683 74.1426Z" fill="#2F2E41"/>
<path d="M140.525 86.4828H142.661C144.239 88.735 145.31 91.3031 145.802 94.01C146.293 96.7169 146.193 99.4983 145.507 102.163C143.135 111.19 145.033 112.853 145.033 112.853C145.033 112.853 153.574 124.97 150.252 139.699C146.931 154.429 147.88 156.092 147.88 156.092L141.949 144.213L138.627 112.853L140.525 86.4828Z" fill="#FFE600"/>
<path opacity="0.1" d="M140.525 86.4949H142.661C144.239 88.7471 145.31 91.3152 145.802 94.0221C146.293 96.729 146.193 99.5104 145.507 102.175C143.135 111.203 145.033 112.866 145.033 112.866C145.033 112.866 153.574 124.982 150.252 139.711C146.931 154.441 147.88 156.104 147.88 156.104L141.949 144.225L138.627 112.866L140.525 86.4949Z" fill="black"/>
<path d="M125.46 78.0489C135.942 78.0489 144.44 69.5397 144.44 59.043C144.44 48.5463 135.942 40.0371 125.46 40.0371C114.978 40.0371 106.481 48.5463 106.481 59.043C106.481 69.5397 114.978 78.0489 125.46 78.0489Z" fill="#2F2E41"/>
<path d="M133.052 74.9604C133.052 74.9604 131.154 82.5628 132.103 82.5628C133.052 82.5628 136.374 86.6015 136.374 86.6015L138.509 94.4415L136.848 100.143L131.154 98.9554L124.037 91.1154L121.902 88.9773L120.004 82.0876C120.004 82.0876 122.376 79.2367 120.716 76.861C119.055 74.4853 133.052 74.9604 133.052 74.9604Z" fill="#FBBEBE"/>
<path opacity="0.1" d="M133.052 74.9604C133.052 74.9604 131.154 82.5628 132.103 82.5628C133.052 82.5628 136.374 86.6015 136.374 86.6015L138.509 94.4415L136.848 100.143L131.154 98.9554L124.037 91.1154L121.902 88.9773L120.004 82.0876C120.004 82.0876 122.376 79.2367 120.716 76.861C119.055 74.4853 133.052 74.9604 133.052 74.9604Z" fill="black"/>
<path d="M75.6396 96.1045L70.4203 87.5518C70.4203 87.5518 64.7862 75.0687 60.7531 79.5826C56.72 84.0965 66.8616 93.2536 66.8616 93.2536L72.081 100.143L75.6396 96.1045Z" fill="#FBBEBE"/>
<path d="M144.914 170.465L141.118 198.261C141.118 198.261 141.593 200.4 136.848 208.239C132.103 216.079 119.292 233.185 119.292 233.185L115.496 226.058C115.496 226.058 120.004 203.488 127.833 198.737L126.884 164.526L144.914 170.465Z" fill="#FBBEBE"/>
<path opacity="0.1" d="M144.914 170.465L141.118 198.261C141.118 198.261 141.593 200.4 136.848 208.239C132.103 216.079 119.292 233.185 119.292 233.185L115.496 226.058C115.496 226.058 120.004 203.488 127.833 198.737L126.884 164.526L144.914 170.465Z" fill="black"/>
<path d="M115.496 223.207L120.716 233.185C120.716 233.185 116.445 245.301 118.106 246.489C119.767 247.677 121.902 258.367 117.394 257.18C112.887 255.992 109.328 251.24 109.328 250.528C109.328 249.815 111.938 239.837 110.514 237.461C109.091 235.085 108.142 234.373 108.142 234.373L104.583 240.312L103.397 239.599L109.328 229.621C109.328 229.621 110.04 227.72 112.887 226.533L115.496 223.207Z" fill="#2F2E41"/>
<path opacity="0.1" d="M115.496 223.207L120.716 233.185C120.716 233.185 116.445 245.301 118.106 246.489C119.767 247.677 121.902 258.367 117.394 257.18C112.887 255.992 109.328 251.24 109.328 250.528C109.328 249.815 111.938 239.837 110.514 237.461C109.091 235.085 108.142 234.373 108.142 234.373L104.583 240.312L103.397 239.599L109.328 229.621C109.328 229.621 110.04 227.72 112.887 226.533L115.496 223.207Z" fill="black"/>
<path d="M126.939 166.522C126.939 166.522 128.782 192.797 124.749 199.687V233.897L119.292 234.61C119.292 234.61 110.04 216.079 114.073 198.261C118.106 180.443 108.142 164.526 108.142 164.526L126.939 166.522Z" fill="#FBBEBE"/>
<path d="M125.579 80.781C131.082 80.781 135.543 76.3137 135.543 70.8029C135.543 65.2922 131.082 60.8248 125.579 60.8248C120.076 60.8248 115.615 65.2922 115.615 70.8029C115.615 76.3137 120.076 80.781 125.579 80.781Z" fill="#FBBEBE"/>
<path d="M135.662 97.0548L125.698 84.4634L120.004 80.6622L117.631 83.7507L110.989 85.6513C110.989 85.6513 106.718 86.6016 102.211 91.8282C97.7031 97.0548 89.6368 100.143 89.6368 100.143L82.994 98.9554C82.994 98.9554 75.165 95.3918 75.165 94.4415C75.165 93.4912 68.2849 100.856 69.9456 103.707C71.6064 106.558 75.165 110.121 77.0629 112.022C78.9609 113.923 79.6726 119.387 91.2975 117.724C102.922 116.061 107.193 110.359 107.193 110.359C107.193 110.359 109.328 121.287 115.496 123.426C121.665 125.564 141.83 126.989 141.83 126.989L146.101 112.735C146.101 112.735 150.846 106.558 144.44 97.53C144.44 97.53 144.317 92.481 143.628 89.1212C143.361 87.8144 143.007 86.7632 142.542 86.364C140.881 84.9386 132.103 82.5628 132.103 82.5628C132.103 82.5628 133.527 87.3143 134.239 87.5519C134.95 87.7894 136.611 95.867 135.662 97.0548Z" fill="#FFE600"/>
<path d="M103.753 167.971C115.7 167.139 122.656 169.099 125.76 170.593C126.336 170.855 126.88 171.185 127.378 171.577C127.605 171.769 127.714 171.919 127.714 172.009C127.714 172.722 144.084 174.148 150.015 172.722C155.946 171.297 145.982 140.65 143.372 138.036C140.763 135.423 142.17 125.858 142.17 125.858C142.17 125.858 136.967 124.732 135.543 125.207C134.12 125.682 126.765 124.495 124.156 123.069C121.546 121.644 118.225 122.594 116.09 122.119C115.136 121.907 114.654 122.264 114.415 122.725C114.042 123.416 113.478 123.986 112.792 124.366C107.755 127.272 103.713 147.361 100.669 158.468C97.3473 170.584 103.753 167.971 103.753 167.971Z" fill="#2F2E41"/>
<path d="M125.698 231.759L126.647 236.986C126.647 236.986 131.629 244.113 130.205 250.052C130.205 250.052 131.392 257.892 135.662 260.031C139.932 262.169 136.374 267.158 132.341 266.92C128.307 266.683 124.512 267.158 124.037 265.97C123.563 264.782 120.716 253.141 120.716 253.141V261.694L118.343 261.931V251.24C118.343 251.24 116.445 247.677 119.055 241.737L118.396 232.621C118.396 232.621 124.986 234.135 125.698 231.759Z" fill="#2F2E41"/>
<path d="M125.46 50.0152C130.963 50.0152 135.424 45.5478 135.424 40.0371C135.424 34.5263 130.963 30.059 125.46 30.059C119.957 30.059 115.496 34.5263 115.496 40.0371C115.496 45.5478 119.957 50.0152 125.46 50.0152Z" fill="#2F2E41"/>
<path d="M133.125 46.1001C134.378 45.1468 135.387 43.9102 136.07 42.4914C136.754 41.0726 137.092 39.5119 137.058 37.937C137.023 36.3621 136.617 34.8177 135.872 33.4302C135.127 32.0427 134.065 30.8515 132.772 29.9541C134.034 30.5253 135.163 31.3535 136.088 32.386C137.012 33.4185 137.711 34.6326 138.141 35.9508C138.571 37.269 138.721 38.6624 138.583 40.0422C138.445 41.422 138.021 42.7578 137.339 43.9645C136.657 45.1711 135.731 46.2221 134.62 47.0505C133.51 47.8788 132.239 48.4663 130.889 48.7754C129.539 49.0845 128.14 49.1085 126.78 48.8459C125.421 48.5833 124.13 48.0397 122.992 47.25C124.628 47.9903 126.433 48.2743 128.217 48.0719C130 47.8695 131.696 47.1882 133.125 46.1001Z" fill="#2F2E41"/>
<path d="M125.698 70.9218C131.332 70.9218 135.899 67.3053 135.899 62.8442C135.899 58.3831 131.332 54.7667 125.698 54.7667C120.063 54.7667 115.496 58.3831 115.496 62.8442C115.496 67.3053 120.063 70.9218 125.698 70.9218Z" fill="#2F2E41"/>
<path opacity="0.1" d="M125.759 170.594C126.336 170.855 126.879 171.185 127.377 171.577C127.503 169.332 128.229 155.755 127.358 155.973L125.759 170.594Z" fill="black"/>
<path d="M42.0599 90.5022C60.557 90.5022 75.5519 75.4864 75.5519 56.9634C75.5519 38.4405 60.557 23.4247 42.0599 23.4247C23.5628 23.4247 8.56787 38.4405 8.56787 56.9634C8.56787 75.4864 23.5628 90.5022 42.0599 90.5022Z" fill="#F2C94C"/>
<path d="M64.3938 84.6319C64.6655 84.0458 63.7787 83.0561 62.4131 82.4213C61.0474 81.7865 59.7201 81.747 59.4485 82.3331C59.1768 82.9192 60.0636 83.9089 61.4292 84.5437C62.7948 85.1785 64.1221 85.218 64.3938 84.6319Z" fill="#FBBEBE"/>
</g>
<defs>
<clipPath id="clip0_24660_1183">
<rect width="391" height="298" fill="white"/>
</clipPath>
</defs>
</svg>
